<svg width="1024" height="753" viewBox="0 0 1024 753" fill="none" xmlns="http://www.w3.org/2000/svg">
<g opacity="0.2" filter="url(#filter0_f_175_198)">
<ellipse cx="512.5" cy="46" rx="670.5" ry="350" fill="#E433F3"/>
</g>
<path d="M33.0349 282C34.5302 282 35.6622 282.63 36.4308 283.891C37.2134 285.138 37.6047 286.953 37.6047 289.336C37.6047 291.719 37.2134 293.541 36.4308 294.802C35.6622 296.063 34.5302 296.693 33.0349 296.693C31.5536 296.693 30.4216 296.063 29.639 294.802C28.8564 293.541 28.4651 291.719 28.4651 289.336C28.4651 286.967 28.8564 285.152 29.639 283.891C30.4216 282.63 31.5536 282 33.0349 282ZM29.9534 289.336C29.9534 291.026 30.1072 292.35 30.4146 293.306L35.0683 284.099C34.5791 283.448 33.9013 283.122 33.0349 283.122C32.0706 283.122 31.316 283.635 30.771 284.66C30.2259 285.672 29.9534 287.23 29.9534 289.336ZM33.0349 295.55C34.0131 295.55 34.7748 295.044 35.3198 294.033C35.8648 293.008 36.1373 291.442 36.1373 289.336C36.1373 287.549 35.9627 286.163 35.6133 285.18L30.9596 294.469C31.4627 295.19 32.1545 295.55 33.0349 295.55Z" fill="url(#paint0_linear_175_198)" fill-opacity="0.6"/>
<path d="M34.2926 319.135H37.3741V320.236H29.3874V319.135H32.9511V307.455L29.5551 309.471L28.9682 308.536L33.1607 305.959H34.2926V319.135Z" fill="url(#paint1_linear_175_198)" fill-opacity="0.6"/>
<path d="M33.0349 329.502C34.5302 329.502 35.6622 330.133 36.4308 331.393C37.2134 332.64 37.6047 334.455 37.6047 336.838C37.6047 339.221 37.2134 341.043 36.4308 342.304C35.6622 343.565 34.5302 344.195 33.0349 344.195C31.5536 344.195 30.4216 343.565 29.639 342.304C28.8564 341.043 28.4651 339.221 28.4651 336.838C28.4651 334.469 28.8564 332.654 29.639 331.393C30.4216 330.133 31.5536 329.502 33.0349 329.502ZM29.9534 336.838C29.9534 338.529 30.1072 339.852 30.4146 340.808L35.0683 331.601C34.5791 330.95 33.9013 330.624 33.0349 330.624C32.0706 330.624 31.316 331.137 30.771 332.162C30.2259 333.174 29.9534 334.732 29.9534 336.838ZM33.0349 343.052C34.0131 343.052 34.7748 342.546 35.3198 341.535C35.8648 340.51 36.1373 338.944 36.1373 336.838C36.1373 335.051 35.9627 333.665 35.6133 332.682L30.9596 341.971C31.4627 342.692 32.1545 343.052 33.0349 343.052Z" fill="url(#paint2_linear_175_198)" fill-opacity="0.6"/>
<path d="M34.2926 366.637H37.3741V367.738H29.3874V366.637H32.9511V354.957L29.5551 356.973L28.9682 356.038L33.1607 353.461H34.2926V366.637Z" fill="url(#paint3_linear_175_198)" fill-opacity="0.6"/>
<path d="M34.2926 390.388H37.3741V391.489H29.3874V390.388H32.9511V378.708L29.5551 380.724L28.9682 379.789L33.1607 377.212H34.2926V390.388Z" fill="url(#paint4_linear_175_198)" fill-opacity="0.6"/>
<path d="M33.0349 400.755C34.5302 400.755 35.6622 401.386 36.4308 402.646C37.2134 403.893 37.6047 405.708 37.6047 408.091C37.6047 410.474 37.2134 412.296 36.4308 413.557C35.6622 414.818 34.5302 415.448 33.0349 415.448C31.5536 415.448 30.4216 414.818 29.639 413.557C28.8564 412.296 28.4651 410.474 28.4651 408.091C28.4651 405.722 28.8564 403.907 29.639 402.646C30.4216 401.386 31.5536 400.755 33.0349 400.755ZM29.9534 408.091C29.9534 409.782 30.1072 411.105 30.4146 412.061L35.0683 402.854C34.5791 402.203 33.9013 401.878 33.0349 401.878C32.0706 401.878 31.316 402.39 30.771 403.415C30.2259 404.427 29.9534 405.985 29.9534 408.091ZM33.0349 414.305C34.0131 414.305 34.7748 413.8 35.3198 412.788C35.8648 411.763 36.1373 410.197 36.1373 408.091C36.1373 406.304 35.9627 404.919 35.6133 403.935L30.9596 413.225C31.4627 413.945 32.1545 414.305 33.0349 414.305Z" fill="url(#paint5_linear_175_198)" fill-opacity="0.6"/>
<path d="M34.2926 437.89H37.3741V438.992H29.3874V437.89H32.9511V426.21L29.5551 428.226L28.9682 427.291L33.1607 424.714H34.2926V437.89Z" fill="url(#paint6_linear_175_198)" fill-opacity="0.6"/>
<path d="M33.0349 448.257C34.5302 448.257 35.6622 448.888 36.4308 450.149C37.2134 451.396 37.6047 453.211 37.6047 455.594C37.6047 457.977 37.2134 459.798 36.4308 461.059C35.6622 462.32 34.5302 462.95 33.0349 462.95C31.5536 462.95 30.4216 462.32 29.639 461.059C28.8564 459.798 28.4651 457.977 28.4651 455.594C28.4651 453.224 28.8564 451.409 29.639 450.149C30.4216 448.888 31.5536 448.257 33.0349 448.257ZM29.9534 455.594C29.9534 457.284 30.1072 458.607 30.4146 459.563L35.0683 450.356C34.5791 449.705 33.9013 449.38 33.0349 449.38C32.0706 449.38 31.316 449.892 30.771 450.918C30.2259 451.929 29.9534 453.488 29.9534 455.594ZM33.0349 461.807C34.0131 461.807 34.7748 461.302 35.3198 460.29C35.8648 459.265 36.1373 457.699 36.1373 455.594C36.1373 453.806 35.9627 452.421 35.6133 451.437L30.9596 460.727C31.4627 461.447 32.1545 461.807 33.0349 461.807Z" fill="url(#paint7_linear_175_198)" fill-opacity="0.6"/>
<path d="M33.0349 472.008C34.5302 472.008 35.6622 472.639 36.4308 473.9C37.2134 475.147 37.6047 476.962 37.6047 479.345C37.6047 481.728 37.2134 483.549 36.4308 484.81C35.6622 486.071 34.5302 486.701 33.0349 486.701C31.5536 486.701 30.4216 486.071 29.639 484.81C28.8564 483.549 28.4651 481.728 28.4651 479.345C28.4651 476.975 28.8564 475.16 29.639 473.9C30.4216 472.639 31.5536 472.008 33.0349 472.008ZM29.9534 479.345C29.9534 481.035 30.1072 482.358 30.4146 483.314L35.0683 474.107C34.5791 473.456 33.9013 473.131 33.0349 473.131C32.0706 473.131 31.316 473.643 30.771 474.669C30.2259 475.68 29.9534 477.239 29.9534 479.345ZM33.0349 485.558C34.0131 485.558 34.7748 485.053 35.3198 484.041C35.8648 483.016 36.1373 481.451 36.1373 479.345C36.1373 477.557 35.9627 476.172 35.6133 475.188L30.9596 484.478C31.4627 485.198 32.1545 485.558 33.0349 485.558Z" fill="url(#paint8_linear_175_198)" fill-opacity="0.6"/>
<path d="M34.2926 509.143H37.3741V510.245H29.3874V509.143H32.9511V497.464L29.5551 499.48L28.9682 498.544L33.1607 495.967H34.2926V509.143Z" fill="url(#paint9_linear_175_198)" fill-opacity="0.6"/>
<path d="M33.0349 519.511C34.5302 519.511 35.6622 520.141 36.4308 521.402C37.2134 522.649 37.6047 524.464 37.6047 526.847C37.6047 529.23 37.2134 531.052 36.4308 532.312C35.6622 533.573 34.5302 534.204 33.0349 534.204C31.5536 534.204 30.4216 533.573 29.639 532.312C28.8564 531.052 28.4651 529.23 28.4651 526.847C28.4651 524.478 28.8564 522.663 29.639 521.402C30.4216 520.141 31.5536 519.511 33.0349 519.511ZM29.9534 526.847C29.9534 528.537 30.1072 529.86 30.4146 530.816L35.0683 521.61C34.5791 520.958 33.9013 520.633 33.0349 520.633C32.0706 520.633 31.316 521.145 30.771 522.171C30.2259 523.182 29.9534 524.741 29.9534 526.847ZM33.0349 533.061C34.0131 533.061 34.7748 532.555 35.3198 531.543C35.8648 530.518 36.1373 528.953 36.1373 526.847C36.1373 525.059 35.9627 523.674 35.6133 522.69L30.9596 531.98C31.4627 532.7 32.1545 533.061 33.0349 533.061Z" fill="url(#paint10_linear_175_198)" fill-opacity="0.6"/>
<path d="M34.2926 556.645H37.3741V557.747H29.3874V556.645H32.9511V544.966L29.5551 546.982L28.9682 546.046L33.1607 543.469H34.2926V556.645Z" fill="url(#paint11_linear_175_198)" fill-opacity="0.6"/>
<path d="M34.2926 580.396H37.3741V581.498H29.3874V580.396H32.9511V568.717L29.5551 570.733L28.9682 569.798L33.1607 567.221H34.2926V580.396Z" fill="url(#paint12_linear_175_198)" fill-opacity="0.6"/>
<path d="M71.9651 329.502C73.4604 329.502 74.5924 330.133 75.361 331.393C76.1436 332.64 76.5349 334.455 76.5349 336.838C76.5349 339.221 76.1436 341.043 75.361 342.304C74.5924 343.565 73.4604 344.195 71.9651 344.195C70.4838 344.195 69.3518 343.565 68.5692 342.304C67.7866 341.043 67.3953 339.221 67.3953 336.838C67.3953 334.469 67.7866 332.654 68.5692 331.393C69.3518 330.133 70.4838 329.502 71.9651 329.502ZM68.8836 336.838C68.8836 338.529 69.0374 339.852 69.3448 340.808L73.9985 331.601C73.5093 330.95 72.8315 330.624 71.9651 330.624C71.0008 330.624 70.2462 331.137 69.7012 332.162C69.1561 333.174 68.8836 334.732 68.8836 336.838ZM71.9651 343.052C72.9433 343.052 73.705 342.546 74.25 341.535C74.795 340.51 75.0675 338.944 75.0675 336.838C75.0675 335.051 74.8928 333.665 74.5435 332.682L69.8898 341.971C70.3929 342.692 71.0847 343.052 71.9651 343.052Z" fill="url(#paint13_linear_175_198)" fill-opacity="0.6"/>
<path d="M73.2228 366.637H76.3043V367.738H68.3176V366.637H71.8812V354.957L68.4853 356.973L67.8984 356.038L72.0909 353.461H73.2228V366.637Z" fill="url(#paint14_linear_175_198)" fill-opacity="0.6"/>
<path d="M71.9651 377.004C73.4604 377.004 74.5924 377.635 75.361 378.895C76.1436 380.142 76.5349 381.957 76.5349 384.34C76.5349 386.723 76.1436 388.545 75.361 389.806C74.5924 391.067 73.4604 391.697 71.9651 391.697C70.4838 391.697 69.3518 391.067 68.5692 389.806C67.7866 388.545 67.3953 386.723 67.3953 384.34C67.3953 381.971 67.7866 380.156 68.5692 378.895C69.3518 377.635 70.4838 377.004 71.9651 377.004ZM68.8836 384.34C68.8836 386.031 69.0374 387.354 69.3448 388.31L73.9985 379.103C73.5093 378.452 72.8315 378.126 71.9651 378.126C71.0008 378.126 70.2462 378.639 69.7012 379.664C69.1561 380.676 68.8836 382.234 68.8836 384.34ZM71.9651 390.554C72.9433 390.554 73.705 390.049 74.25 389.037C74.795 388.012 75.0675 386.446 75.0675 384.34C75.0675 382.553 74.8928 381.168 74.5435 380.184L69.8898 389.474C70.3929 390.194 71.0847 390.554 71.9651 390.554Z" fill="url(#paint15_linear_175_198)" fill-opacity="0.6"/>
<path d="M71.9651 400.755C73.4604 400.755 74.5924 401.386 75.361 402.646C76.1436 403.893 76.5349 405.708 76.5349 408.091C76.5349 410.474 76.1436 412.296 75.361 413.557C74.5924 414.818 73.4604 415.448 71.9651 415.448C70.4838 415.448 69.3518 414.818 68.5692 413.557C67.7866 412.296 67.3953 410.474 67.3953 408.091C67.3953 405.722 67.7866 403.907 68.5692 402.646C69.3518 401.386 70.4838 400.755 71.9651 400.755ZM68.8836 408.091C68.8836 409.782 69.0374 411.105 69.3448 412.061L73.9985 402.854C73.5093 402.203 72.8315 401.878 71.9651 401.878C71.0008 401.878 70.2462 402.39 69.7012 403.415C69.1561 404.427 68.8836 405.985 68.8836 408.091ZM71.9651 414.305C72.9433 414.305 73.705 413.8 74.25 412.788C74.795 411.763 75.0675 410.197 75.0675 408.091C75.0675 406.304 74.8928 404.919 74.5435 403.935L69.8898 413.225C70.3929 413.945 71.0847 414.305 71.9651 414.305Z" fill="url(#paint16_linear_175_198)" fill-opacity="0.6"/>
<path d="M73.2228 437.89H76.3043V438.992H68.3176V437.89H71.8812V426.21L68.4853 428.226L67.8984 427.291L72.0909 424.714H73.2228V437.89Z" fill="url(#paint17_linear_175_198)" fill-opacity="0.6"/>
<path d="M71.9651 448.257C73.4604 448.257 74.5924 448.888 75.361 450.149C76.1436 451.396 76.5349 453.211 76.5349 455.594C76.5349 457.977 76.1436 459.798 75.361 461.059C74.5924 462.32 73.4604 462.95 71.9651 462.95C70.4838 462.95 69.3518 462.32 68.5692 461.059C67.7866 459.798 67.3953 457.977 67.3953 455.594C67.3953 453.224 67.7866 451.409 68.5692 450.149C69.3518 448.888 70.4838 448.257 71.9651 448.257ZM68.8836 455.594C68.8836 457.284 69.0374 458.607 69.3448 459.563L73.9985 450.356C73.5093 449.705 72.8315 449.38 71.9651 449.38C71.0008 449.38 70.2462 449.892 69.7012 450.918C69.1561 451.929 68.8836 453.488 68.8836 455.594ZM71.9651 461.807C72.9433 461.807 73.705 461.302 74.25 460.29C74.795 459.265 75.0675 457.699 75.0675 455.594C75.0675 453.806 74.8928 452.421 74.5435 451.437L69.8898 460.727C70.3929 461.447 71.0847 461.807 71.9651 461.807Z" fill="url(#paint18_linear_175_198)" fill-opacity="0.6"/>
<path d="M73.2228 485.392H76.3043V486.494H68.3176V485.392H71.8812V473.713L68.4853 475.728L67.8984 474.793L72.0909 472.216H73.2228V485.392Z" fill="url(#paint19_linear_175_198)" fill-opacity="0.6"/>
<path d="M71.9651 495.76C73.4604 495.76 74.5924 496.39 75.361 497.651C76.1436 498.898 76.5349 500.713 76.5349 503.096C76.5349 505.479 76.1436 507.301 75.361 508.561C74.5924 509.822 73.4604 510.453 71.9651 510.453C70.4838 510.453 69.3518 509.822 68.5692 508.561C67.7866 507.301 67.3953 505.479 67.3953 503.096C67.3953 500.726 67.7866 498.911 68.5692 497.651C69.3518 496.39 70.4838 495.76 71.9651 495.76ZM68.8836 503.096C68.8836 504.786 69.0374 506.109 69.3448 507.065L73.9985 497.859C73.5093 497.207 72.8315 496.882 71.9651 496.882C71.0008 496.882 70.2462 497.394 69.7012 498.42C69.1561 499.431 68.8836 500.99 68.8836 503.096ZM71.9651 509.31C72.9433 509.31 73.705 508.804 74.25 507.792C74.795 506.767 75.0675 505.202 75.0675 503.096C75.0675 501.308 74.8928 499.923 74.5435 498.939L69.8898 508.229C70.3929 508.949 71.0847 509.31 71.9651 509.31Z" fill="url(#paint20_linear_175_198)" fill-opacity="0.6"/>
<path d="M71.9651 519.511C73.4604 519.511 74.5924 520.141 75.361 521.402C76.1436 522.649 76.5349 524.464 76.5349 526.847C76.5349 529.23 76.1436 531.052 75.361 532.312C74.5924 533.573 73.4604 534.204 71.9651 534.204C70.4838 534.204 69.3518 533.573 68.5692 532.312C67.7866 531.052 67.3953 529.23 67.3953 526.847C67.3953 524.478 67.7866 522.663 68.5692 521.402C69.3518 520.141 70.4838 519.511 71.9651 519.511ZM68.8836 526.847C68.8836 528.537 69.0374 529.86 69.3448 530.816L73.9985 521.61C73.5093 520.958 72.8315 520.633 71.9651 520.633C71.0008 520.633 70.2462 521.145 69.7012 522.171C69.1561 523.182 68.8836 524.741 68.8836 526.847ZM71.9651 533.061C72.9433 533.061 73.705 532.555 74.25 531.543C74.795 530.518 75.0675 528.953 75.0675 526.847C75.0675 525.059 74.8928 523.674 74.5435 522.69L69.8898 531.98C70.3929 532.7 71.0847 533.061 71.9651 533.061Z" fill="url(#paint21_linear_175_198)" fill-opacity="0.6"/>
<path d="M73.2228 556.645H76.3043V557.747H68.3176V556.645H71.8812V544.966L68.4853 546.982L67.8984 546.046L72.0909 543.469H73.2228V556.645Z" fill="url(#paint22_linear_175_198)" fill-opacity="0.6"/>
<path d="M71.9651 567.013C73.4604 567.013 74.5924 567.643 75.361 568.904C76.1436 570.151 76.5349 571.966 76.5349 574.349C76.5349 576.732 76.1436 578.554 75.361 579.815C74.5924 581.075 73.4604 581.706 71.9651 581.706C70.4838 581.706 69.3518 581.075 68.5692 579.815C67.7866 578.554 67.3953 576.732 67.3953 574.349C67.3953 571.98 67.7866 570.165 68.5692 568.904C69.3518 567.643 70.4838 567.013 71.9651 567.013ZM68.8836 574.349C68.8836 576.039 69.0374 577.362 69.3448 578.318L73.9985 569.112C73.5093 568.461 72.8315 568.135 71.9651 568.135C71.0008 568.135 70.2462 568.648 69.7012 569.673C69.1561 570.684 68.8836 572.243 68.8836 574.349ZM71.9651 580.563C72.9433 580.563 73.705 580.057 74.25 579.046C74.795 578.02 75.0675 576.455 75.0675 574.349C75.0675 572.562 74.8928 571.176 74.5435 570.192L69.8898 579.482C70.3929 580.202 71.0847 580.563 71.9651 580.563Z" fill="url(#paint23_linear_175_198)" fill-opacity="0.6"/>
<path d="M73.2228 604.147H76.3043V605.249H68.3176V604.147H71.8812V592.468L68.4853 594.484L67.8984 593.549L72.0909 590.972H73.2228V604.147Z" fill="url(#paint24_linear_175_198)" fill-opacity="0.6"/>
<path d="M73.2228 627.899H76.3043V629H68.3176V627.899H71.8812V616.219L68.4853 618.235L67.8984 617.3L72.0909 614.723H73.2228V627.899Z" fill="url(#paint25_linear_175_198)" fill-opacity="0.6"/>
<path d="M13.5698 353.253C15.0651 353.253 16.1971 353.884 16.9657 355.144C17.7483 356.391 18.1396 358.206 18.1396 360.589C18.1396 362.972 17.7483 364.794 16.9657 366.055C16.1971 367.316 15.0651 367.946 13.5698 367.946C12.0885 367.946 10.9565 367.316 10.1739 366.055C9.3913 364.794 9 362.972 9 360.589C9 358.22 9.3913 356.405 10.1739 355.144C10.9565 353.884 12.0885 353.253 13.5698 353.253ZM10.4883 360.589C10.4883 362.28 10.6421 363.603 10.9495 364.559L15.6032 355.352C15.114 354.701 14.4363 354.375 13.5698 354.375C12.6055 354.375 11.8509 354.888 11.3059 355.913C10.7608 356.925 10.4883 358.483 10.4883 360.589ZM13.5698 366.803C14.5481 366.803 15.3097 366.297 15.8547 365.286C16.3997 364.261 16.6722 362.695 16.6722 360.589C16.6722 358.802 16.4976 357.417 16.1482 356.433L11.4945 365.722C11.9976 366.443 12.6894 366.803 13.5698 366.803Z" fill="url(#paint26_linear_175_198)" fill-opacity="0.6"/>
<path d="M13.5698 377.004C15.0651 377.004 16.1971 377.635 16.9657 378.895C17.7483 380.142 18.1396 381.957 18.1396 384.34C18.1396 386.723 17.7483 388.545 16.9657 389.806C16.1971 391.067 15.0651 391.697 13.5698 391.697C12.0885 391.697 10.9565 391.067 10.1739 389.806C9.3913 388.545 9 386.723 9 384.34C9 381.971 9.3913 380.156 10.1739 378.895C10.9565 377.635 12.0885 377.004 13.5698 377.004ZM10.4883 384.34C10.4883 386.031 10.6421 387.354 10.9495 388.31L15.6032 379.103C15.114 378.452 14.4363 378.126 13.5698 378.126C12.6055 378.126 11.8509 378.639 11.3059 379.664C10.7608 380.676 10.4883 382.234 10.4883 384.34ZM13.5698 390.554C14.5481 390.554 15.3097 390.049 15.8547 389.037C16.3997 388.012 16.6722 386.446 16.6722 384.34C16.6722 382.553 16.4976 381.168 16.1482 380.184L11.4945 389.474C11.9976 390.194 12.6894 390.554 13.5698 390.554Z" fill="url(#paint27_linear_175_198)" fill-opacity="0.6"/>
<path d="M14.8276 414.139H17.909V415.24H9.92235V414.139H13.486V402.459L10.09 404.475L9.5031 403.54L13.6956 400.963H14.8276V414.139Z" fill="url(#paint28_linear_175_198)" fill-opacity="0.6"/>
<path d="M13.5698 424.506C15.0651 424.506 16.1971 425.137 16.9657 426.398C17.7483 427.644 18.1396 429.459 18.1396 431.842C18.1396 434.225 17.7483 436.047 16.9657 437.308C16.1971 438.569 15.0651 439.199 13.5698 439.199C12.0885 439.199 10.9565 438.569 10.1739 437.308C9.3913 436.047 9 434.225 9 431.842C9 429.473 9.3913 427.658 10.1739 426.398C10.9565 425.137 12.0885 424.506 13.5698 424.506ZM10.4883 431.842C10.4883 433.533 10.6421 434.856 10.9495 435.812L15.6032 426.605C15.114 425.954 14.4363 425.629 13.5698 425.629C12.6055 425.629 11.8509 426.141 11.3059 427.166C10.7608 428.178 10.4883 429.737 10.4883 431.842ZM13.5698 438.056C14.5481 438.056 15.3097 437.551 15.8547 436.539C16.3997 435.514 16.6722 433.948 16.6722 431.842C16.6722 430.055 16.4976 428.67 16.1482 427.686L11.4945 436.976C11.9976 437.696 12.6894 438.056 13.5698 438.056Z" fill="url(#paint29_linear_175_198)" fill-opacity="0.6"/>
<path d="M14.8276 461.641H17.909V462.743H9.92235V461.641H13.486V449.962L10.09 451.977L9.5031 451.042L13.6956 448.465H14.8276V461.641Z" fill="url(#paint30_linear_175_198)" fill-opacity="0.6"/>
<path d="M14.8276 485.392H17.909V486.494H9.92235V485.392H13.486V473.713L10.09 475.728L9.5031 474.793L13.6956 472.216H14.8276V485.392Z" fill="url(#paint31_linear_175_198)" fill-opacity="0.6"/>
<path d="M53.7577 319.135H56.8392V320.236H48.8525V319.135H52.4162V307.455L49.0202 309.471L48.4333 308.536L52.6258 305.959H53.7577V319.135Z" fill="url(#paint32_linear_175_198)" fill-opacity="0.6"/>
<path d="M52.5 329.502C53.9953 329.502 55.1273 330.133 55.8959 331.393C56.6785 332.64 57.0698 334.455 57.0698 336.838C57.0698 339.221 56.6785 341.043 55.8959 342.304C55.1273 343.565 53.9953 344.195 52.5 344.195C51.0187 344.195 49.8867 343.565 49.1041 342.304C48.3215 341.043 47.9302 339.221 47.9302 336.838C47.9302 334.469 48.3215 332.654 49.1041 331.393C49.8867 330.133 51.0187 329.502 52.5 329.502ZM49.4185 336.838C49.4185 338.529 49.5723 339.852 49.8797 340.808L54.5334 331.601C54.0442 330.95 53.3664 330.624 52.5 330.624C51.5357 330.624 50.7811 331.137 50.2361 332.162C49.691 333.174 49.4185 334.732 49.4185 336.838ZM52.5 343.052C53.4782 343.052 54.2399 342.546 54.7849 341.535C55.3299 340.51 55.6024 338.944 55.6024 336.838C55.6024 335.051 55.4277 333.665 55.0784 332.682L50.4247 341.971C50.9278 342.692 51.6196 343.052 52.5 343.052Z" fill="url(#paint33_linear_175_198)" fill-opacity="0.6"/>
<path d="M53.7577 366.637H56.8392V367.738H48.8525V366.637H52.4162V354.957L49.0202 356.973L48.4333 356.038L52.6258 353.461H53.7577V366.637Z" fill="url(#paint34_linear_175_198)" fill-opacity="0.6"/>
<path d="M53.7577 390.388H56.8392V391.489H48.8525V390.388H52.4162V378.708L49.0202 380.724L48.4333 379.789L52.6258 377.212H53.7577V390.388Z" fill="url(#paint35_linear_175_198)" fill-opacity="0.6"/>
<path d="M52.5 400.755C53.9953 400.755 55.1273 401.386 55.8959 402.646C56.6785 403.893 57.0698 405.708 57.0698 408.091C57.0698 410.474 56.6785 412.296 55.8959 413.557C55.1273 414.818 53.9953 415.448 52.5 415.448C51.0187 415.448 49.8867 414.818 49.1041 413.557C48.3215 412.296 47.9302 410.474 47.9302 408.091C47.9302 405.722 48.3215 403.907 49.1041 402.646C49.8867 401.386 51.0187 400.755 52.5 400.755ZM49.4185 408.091C49.4185 409.782 49.5723 411.105 49.8797 412.061L54.5334 402.854C54.0442 402.203 53.3664 401.878 52.5 401.878C51.5357 401.878 50.7811 402.39 50.2361 403.415C49.691 404.427 49.4185 405.985 49.4185 408.091ZM52.5 414.305C53.4782 414.305 54.2399 413.8 54.7849 412.788C55.3299 411.763 55.6024 410.197 55.6024 408.091C55.6024 406.304 55.4277 404.919 55.0784 403.935L50.4247 413.225C50.9278 413.945 51.6196 414.305 52.5 414.305Z" fill="url(#paint36_linear_175_198)" fill-opacity="0.6"/>
<path d="M53.7577 437.89H56.8392V438.992H48.8525V437.89H52.4162V426.21L49.0202 428.226L48.4333 427.291L52.6258 424.714H53.7577V437.89Z" fill="url(#paint37_linear_175_198)" fill-opacity="0.6"/>
<path d="M53.7577 461.641H56.8392V462.743H48.8525V461.641H52.4162V449.962L49.0202 451.977L48.4333 451.042L52.6258 448.465H53.7577V461.641Z" fill="url(#paint38_linear_175_198)" fill-opacity="0.6"/>
<path d="M52.5 472.008C53.9953 472.008 55.1273 472.639 55.8959 473.9C56.6785 475.147 57.0698 476.962 57.0698 479.345C57.0698 481.728 56.6785 483.549 55.8959 484.81C55.1273 486.071 53.9953 486.701 52.5 486.701C51.0187 486.701 49.8867 486.071 49.1041 484.81C48.3215 483.549 47.9302 481.728 47.9302 479.345C47.9302 476.975 48.3215 475.16 49.1041 473.9C49.8867 472.639 51.0187 472.008 52.5 472.008ZM49.4185 479.345C49.4185 481.035 49.5723 482.358 49.8797 483.314L54.5334 474.107C54.0442 473.456 53.3664 473.131 52.5 473.131C51.5357 473.131 50.7811 473.643 50.2361 474.669C49.691 475.68 49.4185 477.239 49.4185 479.345ZM52.5 485.558C53.4782 485.558 54.2399 485.053 54.7849 484.041C55.3299 483.016 55.6024 481.451 55.6024 479.345C55.6024 477.557 55.4277 476.172 55.0784 475.188L50.4247 484.478C50.9278 485.198 51.6196 485.558 52.5 485.558Z" fill="url(#paint39_linear_175_198)" fill-opacity="0.6"/>
<path d="M53.7577 509.143H56.8392V510.245H48.8525V509.143H52.4162V497.464L49.0202 499.48L48.4333 498.544L52.6258 495.967H53.7577V509.143Z" fill="url(#paint40_linear_175_198)" fill-opacity="0.6"/>
<path d="M52.5 519.511C53.9953 519.511 55.1273 520.141 55.8959 521.402C56.6785 522.649 57.0698 524.464 57.0698 526.847C57.0698 529.23 56.6785 531.052 55.8959 532.312C55.1273 533.573 53.9953 534.204 52.5 534.204C51.0187 534.204 49.8867 533.573 49.1041 532.312C48.3215 531.052 47.9302 529.23 47.9302 526.847C47.9302 524.478 48.3215 522.663 49.1041 521.402C49.8867 520.141 51.0187 519.511 52.5 519.511ZM49.4185 526.847C49.4185 528.537 49.5723 529.86 49.8797 530.816L54.5334 521.61C54.0442 520.958 53.3664 520.633 52.5 520.633C51.5357 520.633 50.7811 521.145 50.2361 522.171C49.691 523.182 49.4185 524.741 49.4185 526.847ZM52.5 533.061C53.4782 533.061 54.2399 532.555 54.7849 531.543C55.3299 530.518 55.6024 528.953 55.6024 526.847C55.6024 525.059 55.4277 523.674 55.0784 522.69L50.4247 531.98C50.9278 532.7 51.6196 533.061 52.5 533.061Z" fill="url(#paint41_linear_175_198)" fill-opacity="0.6"/>
<path d="M91.4302 305.751C92.9255 305.751 94.0575 306.381 94.8261 307.642C95.6087 308.889 96 310.704 96 313.087C96 315.47 95.6087 317.292 94.8261 318.553C94.0575 319.814 92.9255 320.444 91.4302 320.444C89.9489 320.444 88.8169 319.814 88.0343 318.553C87.2517 317.292 86.8604 315.47 86.8604 313.087C86.8604 310.718 87.2517 308.903 88.0343 307.642C88.8169 306.381 89.9489 305.751 91.4302 305.751ZM88.3487 313.087C88.3487 314.777 88.5024 316.101 88.8099 317.057L93.4636 307.85C92.9744 307.199 92.2966 306.873 91.4302 306.873C90.4659 306.873 89.7113 307.386 89.1663 308.411C88.6212 309.423 88.3487 310.981 88.3487 313.087ZM91.4302 319.301C92.4084 319.301 93.1701 318.795 93.7151 317.784C94.2601 316.759 94.5326 315.193 94.5326 313.087C94.5326 311.3 94.3579 309.914 94.0086 308.931L89.3549 318.22C89.858 318.941 90.5498 319.301 91.4302 319.301Z" fill="url(#paint42_linear_175_198)" fill-opacity="0.6"/>
<path d="M92.6879 342.886H95.7694V343.987H87.7827V342.886H91.3463V331.206L87.9504 333.222L87.3635 332.287L91.556 329.71H92.6879V342.886Z" fill="url(#paint43_linear_175_198)" fill-opacity="0.6"/>
<path d="M92.6879 366.637H95.7694V367.738H87.7827V366.637H91.3463V354.957L87.9504 356.973L87.3635 356.038L91.556 353.461H92.6879V366.637Z" fill="url(#paint44_linear_175_198)" fill-opacity="0.6"/>
<path d="M91.4302 377.004C92.9255 377.004 94.0575 377.635 94.8261 378.895C95.6087 380.142 96 381.957 96 384.34C96 386.723 95.6087 388.545 94.8261 389.806C94.0575 391.067 92.9255 391.697 91.4302 391.697C89.9489 391.697 88.8169 391.067 88.0343 389.806C87.2517 388.545 86.8604 386.723 86.8604 384.34C86.8604 381.971 87.2517 380.156 88.0343 378.895C88.8169 377.635 89.9489 377.004 91.4302 377.004ZM88.3487 384.34C88.3487 386.031 88.5024 387.354 88.8099 388.31L93.4636 379.103C92.9744 378.452 92.2966 378.126 91.4302 378.126C90.4659 378.126 89.7113 378.639 89.1663 379.664C88.6212 380.676 88.3487 382.234 88.3487 384.34ZM91.4302 390.554C92.4084 390.554 93.1701 390.049 93.7151 389.037C94.2601 388.012 94.5326 386.446 94.5326 384.34C94.5326 382.553 94.3579 381.168 94.0086 380.184L89.3549 389.474C89.858 390.194 90.5498 390.554 91.4302 390.554Z" fill="url(#paint45_linear_175_198)" fill-opacity="0.6"/>
<path d="M91.4302 400.755C92.9255 400.755 94.0575 401.386 94.8261 402.646C95.6087 403.893 96 405.708 96 408.091C96 410.474 95.6087 412.296 94.8261 413.557C94.0575 414.818 92.9255 415.448 91.4302 415.448C89.9489 415.448 88.8169 414.818 88.0343 413.557C87.2517 412.296 86.8604 410.474 86.8604 408.091C86.8604 405.722 87.2517 403.907 88.0343 402.646C88.8169 401.386 89.9489 400.755 91.4302 400.755ZM88.3487 408.091C88.3487 409.782 88.5024 411.105 88.8099 412.061L93.4636 402.854C92.9744 402.203 92.2966 401.878 91.4302 401.878C90.4659 401.878 89.7113 402.39 89.1663 403.415C88.6212 404.427 88.3487 405.985 88.3487 408.091ZM91.4302 414.305C92.4084 414.305 93.1701 413.8 93.7151 412.788C94.2601 411.763 94.5326 410.197 94.5326 408.091C94.5326 406.304 94.3579 404.919 94.0086 403.935L89.3549 413.225C89.858 413.945 90.5498 414.305 91.4302 414.305Z" fill="url(#paint46_linear_175_198)" fill-opacity="0.6"/>
<g opacity="0.6">
<path d="M919.93 -18C921.356 -18 922.436 -17.395 923.17 -16.1851C923.916 -14.9885 924.29 -13.2468 924.29 -10.9599C924.29 -8.67299 923.916 -6.9246 923.17 -5.71468C922.436 -4.50476 921.356 -3.8998 919.93 -3.8998C918.517 -3.8998 917.437 -4.50476 916.69 -5.71468C915.943 -6.9246 915.57 -8.67299 915.57 -10.9599C915.57 -13.2335 915.943 -14.9752 916.69 -16.1851C917.437 -17.395 918.517 -18 919.93 -18ZM916.99 -10.9599C916.99 -9.33778 917.137 -8.06804 917.43 -7.15063L921.87 -15.9857C921.403 -16.6106 920.756 -16.923 919.93 -16.923C919.01 -16.923 918.29 -16.4311 917.77 -15.4472C917.25 -14.4766 916.99 -12.9808 916.99 -10.9599ZM919.93 -4.99671C920.863 -4.99671 921.59 -5.482 922.11 -6.4526C922.63 -7.43649 922.89 -8.93891 922.89 -10.9599C922.89 -12.675 922.723 -14.0046 922.39 -14.9486L917.95 -6.03378C918.43 -5.3424 919.09 -4.99671 919.93 -4.99671Z" fill="url(#paint47_linear_175_198)"/>
<path d="M921.13 17.6365H924.07V18.6936H916.45V17.6365H919.85V6.42819L916.61 8.36273L916.05 7.46526L920.05 4.99224H921.13V17.6365Z" fill="url(#paint48_linear_175_198)"/>
<path d="M919.93 27.5856C921.356 27.5856 922.436 28.1906 923.17 29.4005C923.916 30.5971 924.29 32.3389 924.29 34.6257C924.29 36.9126 923.916 38.661 923.17 39.8709C922.436 41.0808 921.356 41.6858 919.93 41.6858C918.517 41.6858 917.437 41.0808 916.69 39.8709C915.943 38.661 915.57 36.9126 915.57 34.6257C915.57 32.3521 915.943 30.6104 916.69 29.4005C917.437 28.1906 918.517 27.5856 919.93 27.5856ZM916.99 34.6257C916.99 36.2478 917.137 37.5176 917.43 38.435L921.87 29.5999C921.403 28.975 920.756 28.6626 919.93 28.6626C919.01 28.6626 918.29 29.1545 917.77 30.1384C917.25 31.109 916.99 32.6048 916.99 34.6257ZM919.93 40.5889C920.863 40.5889 921.59 40.1036 922.11 39.133C922.63 38.1491 922.89 36.6467 922.89 34.6257C922.89 32.9106 922.723 31.581 922.39 30.637L917.95 39.5518C918.43 40.2432 919.09 40.5889 919.93 40.5889Z" fill="url(#paint49_linear_175_198)"/>
<path d="M921.13 63.2221H924.07V64.2792H916.45V63.2221H919.85V52.0138L916.61 53.9483L916.05 53.0509L920.05 50.5778H921.13V63.2221Z" fill="url(#paint50_linear_175_198)"/>
<path d="M921.13 86.015H924.07V87.072H916.45V86.015H919.85V74.8066L916.61 76.7411L916.05 75.8437L920.05 73.3706H921.13V86.015Z" fill="url(#paint51_linear_175_198)"/>
<path d="M919.93 95.964C921.356 95.964 922.436 96.569 923.17 97.7789C923.916 98.9755 924.29 100.717 924.29 103.004C924.29 105.291 923.916 107.039 923.17 108.249C922.436 109.459 921.356 110.064 919.93 110.064C918.517 110.064 917.437 109.459 916.69 108.249C915.943 107.039 915.57 105.291 915.57 103.004C915.57 100.731 915.943 98.9888 916.69 97.7789C917.437 96.569 918.517 95.964 919.93 95.964ZM916.99 103.004C916.99 104.626 917.137 105.896 917.43 106.813L921.87 97.9783C921.403 97.3534 920.756 97.041 919.93 97.041C919.01 97.041 918.29 97.5329 917.77 98.5168C917.25 99.4874 916.99 100.983 916.99 103.004ZM919.93 108.967C920.863 108.967 921.59 108.482 922.11 107.511C922.63 106.528 922.89 105.025 922.89 103.004C922.89 101.289 922.723 99.9594 922.39 99.0154L917.95 107.93C918.43 108.622 919.09 108.967 919.93 108.967Z" fill="url(#paint52_linear_175_198)"/>
<path d="M921.13 131.601H924.07V132.658H916.45V131.601H919.85V120.392L916.61 122.327L916.05 121.429L920.05 118.956H921.13V131.601Z" fill="url(#paint53_linear_175_198)"/>
<path d="M919.93 141.55C921.356 141.55 922.436 142.155 923.17 143.365C923.916 144.561 924.29 146.303 924.29 148.59C924.29 150.877 923.916 152.625 923.17 153.835C922.436 155.045 921.356 155.65 919.93 155.65C918.517 155.65 917.437 155.045 916.69 153.835C915.943 152.625 915.57 150.877 915.57 148.59C915.57 146.316 915.943 144.574 916.69 143.365C917.437 142.155 918.517 141.55 919.93 141.55ZM916.99 148.59C916.99 150.212 917.137 151.482 917.43 152.399L921.87 143.564C921.403 142.939 920.756 142.627 919.93 142.627C919.01 142.627 918.29 143.119 917.77 144.102C917.25 145.073 916.99 146.569 916.99 148.59ZM919.93 154.553C920.863 154.553 921.59 154.068 922.11 153.097C922.63 152.113 922.89 150.611 922.89 148.59C922.89 146.875 922.723 145.545 922.39 144.601L917.95 153.516C918.43 154.207 919.09 154.553 919.93 154.553Z" fill="url(#paint54_linear_175_198)"/>
<path d="M919.93 164.342C921.356 164.342 922.436 164.947 923.17 166.157C923.916 167.354 924.29 169.096 924.29 171.383C924.29 173.669 923.916 175.418 923.17 176.628C922.436 177.838 921.356 178.443 919.93 178.443C918.517 178.443 917.437 177.838 916.69 176.628C915.943 175.418 915.57 173.669 915.57 171.383C915.57 169.109 915.943 167.367 916.69 166.157C917.437 164.947 918.517 164.342 919.93 164.342ZM916.99 171.383C916.99 173.005 917.137 174.274 917.43 175.192L921.87 166.357C921.403 165.732 920.756 165.419 919.93 165.419C919.01 165.419 918.29 165.911 917.77 166.895C917.25 167.866 916.99 169.362 916.99 171.383ZM919.93 177.346C920.863 177.346 921.59 176.86 922.11 175.89C922.63 174.906 922.89 173.404 922.89 171.383C922.89 169.667 922.723 168.338 922.39 167.394L917.95 176.309C918.43 177 919.09 177.346 919.93 177.346Z" fill="url(#paint55_linear_175_198)"/>
<path d="M921.13 199.979H924.07V201.036H916.45V199.979H919.85V188.771L916.61 190.705L916.05 189.808L920.05 187.335H921.13V199.979Z" fill="url(#paint56_linear_175_198)"/>
<path d="M919.93 209.928C921.356 209.928 922.436 210.533 923.17 211.743C923.916 212.94 924.29 214.681 924.29 216.968C924.29 219.255 923.916 221.003 923.17 222.213C922.436 223.423 921.356 224.028 919.93 224.028C918.517 224.028 917.437 223.423 916.69 222.213C915.943 221.003 915.57 219.255 915.57 216.968C915.57 214.695 915.943 212.953 916.69 211.743C917.437 210.533 918.517 209.928 919.93 209.928ZM916.99 216.968C916.99 218.59 917.137 219.86 917.43 220.777L921.87 211.942C921.403 211.317 920.756 211.005 919.93 211.005C919.01 211.005 918.29 211.497 917.77 212.481C917.25 213.451 916.99 214.947 916.99 216.968ZM919.93 222.931C920.863 222.931 921.59 222.446 922.11 221.475C922.63 220.492 922.89 218.989 922.89 216.968C922.89 215.253 922.723 213.923 922.39 212.979L917.95 221.894C918.43 222.586 919.09 222.931 919.93 222.931Z" fill="url(#paint57_linear_175_198)"/>
<path d="M921.13 245.565H924.07V246.622H916.45V245.565H919.85V234.356L916.61 236.291L916.05 235.393L920.05 232.92H921.13V245.565Z" fill="url(#paint58_linear_175_198)"/>
<path d="M921.13 268.357H924.07V269.414H916.45V268.357H919.85V257.149L916.61 259.084L916.05 258.186L920.05 255.713H921.13V268.357Z" fill="url(#paint59_linear_175_198)"/>
<path d="M957.07 27.5856C958.497 27.5856 959.577 28.1906 960.31 29.4005C961.057 30.5971 961.43 32.3389 961.43 34.6257C961.43 36.9126 961.057 38.661 960.31 39.8709C959.577 41.0808 958.497 41.6858 957.07 41.6858C955.657 41.6858 954.577 41.0808 953.83 39.8709C953.084 38.661 952.71 36.9126 952.71 34.6257C952.71 32.3521 953.084 30.6104 953.83 29.4005C954.577 28.1906 955.657 27.5856 957.07 27.5856ZM954.13 34.6257C954.13 36.2478 954.277 37.5176 954.57 38.435L959.01 29.5999C958.543 28.975 957.897 28.6626 957.07 28.6626C956.15 28.6626 955.43 29.1545 954.91 30.1384C954.39 31.109 954.13 32.6048 954.13 34.6257ZM957.07 40.5889C958.003 40.5889 958.73 40.1036 959.25 39.133C959.77 38.1491 960.03 36.6467 960.03 34.6257C960.03 32.9106 959.863 31.581 959.53 30.637L955.09 39.5518C955.57 40.2432 956.23 40.5889 957.07 40.5889Z" fill="url(#paint60_linear_175_198)"/>
<path d="M958.27 63.2221H961.21V64.2792H953.59V63.2221H956.99V52.0138L953.75 53.9483L953.19 53.0509L957.19 50.5778H958.27V63.2221Z" fill="url(#paint61_linear_175_198)"/>
<path d="M957.07 73.1712C958.497 73.1712 959.577 73.7762 960.31 74.9861C961.057 76.1827 961.43 77.9245 961.43 80.2113C961.43 82.4982 961.057 84.2466 960.31 85.4565C959.577 86.6665 958.497 87.2714 957.07 87.2714C955.657 87.2714 954.577 86.6665 953.83 85.4565C953.084 84.2466 952.71 82.4982 952.71 80.2113C952.71 77.9378 953.084 76.196 953.83 74.9861C954.577 73.7762 955.657 73.1712 957.07 73.1712ZM954.13 80.2113C954.13 81.8334 954.277 83.1032 954.57 84.0206L959.01 75.1855C958.543 74.5606 957.897 74.2482 957.07 74.2482C956.15 74.2482 955.43 74.7401 954.91 75.724C954.39 76.6946 954.13 78.1904 954.13 80.2113ZM957.07 86.1745C958.003 86.1745 958.73 85.6892 959.25 84.7186C959.77 83.7347 960.03 82.2323 960.03 80.2113C960.03 78.4962 959.863 77.1666 959.53 76.2226L955.09 85.1374C955.57 85.8288 956.23 86.1745 957.07 86.1745Z" fill="url(#paint62_linear_175_198)"/>
<path d="M957.07 95.964C958.497 95.964 959.577 96.569 960.31 97.7789C961.057 98.9755 961.43 100.717 961.43 103.004C961.43 105.291 961.057 107.039 960.31 108.249C959.577 109.459 958.497 110.064 957.07 110.064C955.657 110.064 954.577 109.459 953.83 108.249C953.084 107.039 952.71 105.291 952.71 103.004C952.71 100.731 953.084 98.9888 953.83 97.7789C954.577 96.569 955.657 95.964 957.07 95.964ZM954.13 103.004C954.13 104.626 954.277 105.896 954.57 106.813L959.01 97.9783C958.543 97.3534 957.897 97.041 957.07 97.041C956.15 97.041 955.43 97.5329 954.91 98.5168C954.39 99.4874 954.13 100.983 954.13 103.004ZM957.07 108.967C958.003 108.967 958.73 108.482 959.25 107.511C959.77 106.528 960.03 105.025 960.03 103.004C960.03 101.289 959.863 99.9594 959.53 99.0154L955.09 107.93C955.57 108.622 956.23 108.967 957.07 108.967Z" fill="url(#paint63_linear_175_198)"/>
<path d="M958.27 131.601H961.21V132.658H953.59V131.601H956.99V120.392L953.75 122.327L953.19 121.429L957.19 118.956H958.27V131.601Z" fill="url(#paint64_linear_175_198)"/>
<path d="M957.07 141.55C958.497 141.55 959.577 142.155 960.31 143.365C961.057 144.561 961.43 146.303 961.43 148.59C961.43 150.877 961.057 152.625 960.31 153.835C959.577 155.045 958.497 155.65 957.07 155.65C955.657 155.65 954.577 155.045 953.83 153.835C953.084 152.625 952.71 150.877 952.71 148.59C952.71 146.316 953.084 144.574 953.83 143.365C954.577 142.155 955.657 141.55 957.07 141.55ZM954.13 148.59C954.13 150.212 954.277 151.482 954.57 152.399L959.01 143.564C958.543 142.939 957.897 142.627 957.07 142.627C956.15 142.627 955.43 143.119 954.91 144.102C954.39 145.073 954.13 146.569 954.13 148.59ZM957.07 154.553C958.003 154.553 958.73 154.068 959.25 153.097C959.77 152.113 960.03 150.611 960.03 148.59C960.03 146.875 959.863 145.545 959.53 144.601L955.09 153.516C955.57 154.207 956.23 154.553 957.07 154.553Z" fill="url(#paint65_linear_175_198)"/>
<path d="M958.27 177.186H961.21V178.243H953.59V177.186H956.99V165.978L953.75 167.912L953.19 167.015L957.19 164.542H958.27V177.186Z" fill="url(#paint66_linear_175_198)"/>
<path d="M957.07 187.135C958.497 187.135 959.577 187.74 960.31 188.95C961.057 190.147 961.43 191.888 961.43 194.175C961.43 196.462 961.057 198.211 960.31 199.421C959.577 200.63 958.497 201.235 957.07 201.235C955.657 201.235 954.577 200.63 953.83 199.421C953.084 198.211 952.71 196.462 952.71 194.175C952.71 191.902 953.084 190.16 953.83 188.95C954.577 187.74 955.657 187.135 957.07 187.135ZM954.13 194.175C954.13 195.797 954.277 197.067 954.57 197.985L959.01 189.15C958.543 188.525 957.897 188.212 957.07 188.212C956.15 188.212 955.43 188.704 954.91 189.688C954.39 190.659 954.13 192.154 954.13 194.175ZM957.07 200.139C958.003 200.139 958.73 199.653 959.25 198.683C959.77 197.699 960.03 196.196 960.03 194.175C960.03 192.46 959.863 191.131 959.53 190.187L955.09 199.101C955.57 199.793 956.23 200.139 957.07 200.139Z" fill="url(#paint67_linear_175_198)"/>
<path d="M957.07 209.928C958.497 209.928 959.577 210.533 960.31 211.743C961.057 212.94 961.43 214.681 961.43 216.968C961.43 219.255 961.057 221.003 960.31 222.213C959.577 223.423 958.497 224.028 957.07 224.028C955.657 224.028 954.577 223.423 953.83 222.213C953.084 221.003 952.71 219.255 952.71 216.968C952.71 214.695 953.084 212.953 953.83 211.743C954.577 210.533 955.657 209.928 957.07 209.928ZM954.13 216.968C954.13 218.59 954.277 219.86 954.57 220.777L959.01 211.942C958.543 211.317 957.897 211.005 957.07 211.005C956.15 211.005 955.43 211.497 954.91 212.481C954.39 213.451 954.13 214.947 954.13 216.968ZM957.07 222.931C958.003 222.931 958.73 222.446 959.25 221.475C959.77 220.492 960.03 218.989 960.03 216.968C960.03 215.253 959.863 213.923 959.53 212.979L955.09 221.894C955.57 222.586 956.23 222.931 957.07 222.931Z" fill="url(#paint68_linear_175_198)"/>
<path d="M958.27 245.565H961.21V246.622H953.59V245.565H956.99V234.356L953.75 236.291L953.19 235.393L957.19 232.92H958.27V245.565Z" fill="url(#paint69_linear_175_198)"/>
<path d="M957.07 255.514C958.497 255.514 959.577 256.119 960.31 257.329C961.057 258.525 961.43 260.267 961.43 262.554C961.43 264.841 961.057 266.589 960.31 267.799C959.577 269.009 958.497 269.614 957.07 269.614C955.657 269.614 954.577 269.009 953.83 267.799C953.084 266.589 952.71 264.841 952.71 262.554C952.71 260.28 953.084 258.538 953.83 257.329C954.577 256.119 955.657 255.514 957.07 255.514ZM954.13 262.554C954.13 264.176 954.277 265.446 954.57 266.363L959.01 257.528C958.543 256.903 957.897 256.591 957.07 256.591C956.15 256.591 955.43 257.083 954.91 258.066C954.39 259.037 954.13 260.533 954.13 262.554ZM957.07 268.517C958.003 268.517 958.73 268.032 959.25 267.061C959.77 266.077 960.03 264.575 960.03 262.554C960.03 260.839 959.863 259.509 959.53 258.565L955.09 267.48C955.57 268.171 956.23 268.517 957.07 268.517Z" fill="url(#paint70_linear_175_198)"/>
<path d="M958.27 291.15H961.21V292.207H953.59V291.15H956.99V279.942L953.75 281.876L953.19 280.979L957.19 278.506H958.27V291.15Z" fill="url(#paint71_linear_175_198)"/>
<path d="M958.27 313.943H961.21V315H953.59V313.943H956.99V302.735L953.75 304.669L953.19 303.772L957.19 301.299H958.27V313.943Z" fill="url(#paint72_linear_175_198)"/>
<path d="M901.36 50.3784C902.786 50.3784 903.866 50.9834 904.599 52.1933C905.346 53.3899 905.719 55.1317 905.719 57.4185C905.719 59.7054 905.346 61.4538 904.599 62.6637C903.866 63.8736 902.786 64.4786 901.36 64.4786C899.946 64.4786 898.867 63.8736 898.12 62.6637C897.373 61.4538 897 59.7054 897 57.4185C897 55.145 897.373 53.4032 898.12 52.1933C898.867 50.9834 899.946 50.3784 901.36 50.3784ZM898.42 57.4185C898.42 59.0406 898.567 60.3104 898.86 61.2278L903.3 52.3927C902.833 51.7678 902.186 51.4554 901.36 51.4554C900.44 51.4554 899.72 51.9473 899.2 52.9312C898.68 53.9018 898.42 55.3976 898.42 57.4185ZM901.36 63.3817C902.293 63.3817 903.02 62.8964 903.54 61.9258C904.06 60.9419 904.319 59.4395 904.319 57.4185C904.319 55.7034 904.153 54.3738 903.82 53.4298L899.38 62.3446C899.86 63.036 900.52 63.3817 901.36 63.3817Z" fill="url(#paint73_linear_175_198)"/>
<path d="M901.36 73.1712C902.786 73.1712 903.866 73.7762 904.599 74.9861C905.346 76.1827 905.719 77.9245 905.719 80.2113C905.719 82.4982 905.346 84.2466 904.599 85.4565C903.866 86.6665 902.786 87.2714 901.36 87.2714C899.946 87.2714 898.867 86.6665 898.12 85.4565C897.373 84.2466 897 82.4982 897 80.2113C897 77.9378 897.373 76.196 898.12 74.9861C898.867 73.7762 899.946 73.1712 901.36 73.1712ZM898.42 80.2113C898.42 81.8334 898.567 83.1032 898.86 84.0206L903.3 75.1855C902.833 74.5606 902.186 74.2482 901.36 74.2482C900.44 74.2482 899.72 74.7401 899.2 75.724C898.68 76.6946 898.42 78.1904 898.42 80.2113ZM901.36 86.1745C902.293 86.1745 903.02 85.6892 903.54 84.7186C904.06 83.7347 904.319 82.2323 904.319 80.2113C904.319 78.4962 904.153 77.1666 903.82 76.2226L899.38 85.1374C899.86 85.8288 900.52 86.1745 901.36 86.1745Z" fill="url(#paint74_linear_175_198)"/>
<path d="M902.56 108.808H905.499V109.865H897.88V108.808H901.28V97.5994L898.04 99.5339L897.48 98.6365L901.48 96.1635H902.56V108.808Z" fill="url(#paint75_linear_175_198)"/>
<path d="M901.36 118.757C902.786 118.757 903.866 119.362 904.599 120.572C905.346 121.768 905.719 123.51 905.719 125.797C905.719 128.084 905.346 129.832 904.599 131.042C903.866 132.252 902.786 132.857 901.36 132.857C899.946 132.857 898.867 132.252 898.12 131.042C897.373 129.832 897 128.084 897 125.797C897 123.523 897.373 121.782 898.12 120.572C898.867 119.362 899.946 118.757 901.36 118.757ZM898.42 125.797C898.42 127.419 898.567 128.689 898.86 129.606L903.3 120.771C902.833 120.146 902.186 119.834 901.36 119.834C900.44 119.834 899.72 120.326 899.2 121.31C898.68 122.28 898.42 123.776 898.42 125.797ZM901.36 131.76C902.293 131.76 903.02 131.275 903.54 130.304C904.06 129.32 904.319 127.818 904.319 125.797C904.319 124.082 904.153 122.752 903.82 121.808L899.38 130.723C899.86 131.414 900.52 131.76 901.36 131.76Z" fill="url(#paint76_linear_175_198)"/>
<path d="M902.56 154.393H905.499V155.45H897.88V154.393H901.28V143.185L898.04 145.12L897.48 144.222L901.48 141.749H902.56V154.393Z" fill="url(#paint77_linear_175_198)"/>
<path d="M902.56 177.186H905.499V178.243H897.88V177.186H901.28V165.978L898.04 167.912L897.48 167.015L901.48 164.542H902.56V177.186Z" fill="url(#paint78_linear_175_198)"/>
<path d="M939.7 17.6365H942.64V18.6936H935.02V17.6365H938.42V6.42819L935.18 8.36273L934.62 7.46526L938.62 4.99224H939.7V17.6365Z" fill="url(#paint79_linear_175_198)"/>
<path d="M938.5 27.5856C939.927 27.5856 941.006 28.1906 941.74 29.4005C942.486 30.5971 942.86 32.3389 942.86 34.6257C942.86 36.9126 942.486 38.661 941.74 39.8709C941.006 41.0808 939.927 41.6858 938.5 41.6858C937.087 41.6858 936.007 41.0808 935.26 39.8709C934.514 38.661 934.14 36.9126 934.14 34.6257C934.14 32.3521 934.514 30.6104 935.26 29.4005C936.007 28.1906 937.087 27.5856 938.5 27.5856ZM935.56 34.6257C935.56 36.2478 935.707 37.5176 936 38.435L940.44 29.5999C939.973 28.975 939.327 28.6626 938.5 28.6626C937.58 28.6626 936.86 29.1545 936.34 30.1384C935.82 31.109 935.56 32.6048 935.56 34.6257ZM938.5 40.5889C939.433 40.5889 940.16 40.1036 940.68 39.133C941.2 38.1491 941.46 36.6467 941.46 34.6257C941.46 32.9106 941.293 31.581 940.96 30.637L936.52 39.5518C937 40.2432 937.66 40.5889 938.5 40.5889Z" fill="url(#paint80_linear_175_198)"/>
<path d="M939.7 63.2221H942.64V64.2792H935.02V63.2221H938.42V52.0138L935.18 53.9483L934.62 53.0509L938.62 50.5778H939.7V63.2221Z" fill="url(#paint81_linear_175_198)"/>
<path d="M939.7 86.015H942.64V87.072H935.02V86.015H938.42V74.8066L935.18 76.7411L934.62 75.8437L938.62 73.3706H939.7V86.015Z" fill="url(#paint82_linear_175_198)"/>
<path d="M938.5 95.964C939.927 95.964 941.006 96.569 941.74 97.7789C942.486 98.9755 942.86 100.717 942.86 103.004C942.86 105.291 942.486 107.039 941.74 108.249C941.006 109.459 939.927 110.064 938.5 110.064C937.087 110.064 936.007 109.459 935.26 108.249C934.514 107.039 934.14 105.291 934.14 103.004C934.14 100.731 934.514 98.9888 935.26 97.7789C936.007 96.569 937.087 95.964 938.5 95.964ZM935.56 103.004C935.56 104.626 935.707 105.896 936 106.813L940.44 97.9783C939.973 97.3534 939.327 97.041 938.5 97.041C937.58 97.041 936.86 97.5329 936.34 98.5168C935.82 99.4874 935.56 100.983 935.56 103.004ZM938.5 108.967C939.433 108.967 940.16 108.482 940.68 107.511C941.2 106.528 941.46 105.025 941.46 103.004C941.46 101.289 941.293 99.9594 940.96 99.0154L936.52 107.93C937 108.622 937.66 108.967 938.5 108.967Z" fill="url(#paint83_linear_175_198)"/>
<path d="M939.7 131.601H942.64V132.658H935.02V131.601H938.42V120.392L935.18 122.327L934.62 121.429L938.62 118.956H939.7V131.601Z" fill="url(#paint84_linear_175_198)"/>
<path d="M939.7 154.393H942.64V155.45H935.02V154.393H938.42V143.185L935.18 145.12L934.62 144.222L938.62 141.749H939.7V154.393Z" fill="url(#paint85_linear_175_198)"/>
<path d="M938.5 164.342C939.927 164.342 941.006 164.947 941.74 166.157C942.486 167.354 942.86 169.096 942.86 171.383C942.86 173.669 942.486 175.418 941.74 176.628C941.006 177.838 939.927 178.443 938.5 178.443C937.087 178.443 936.007 177.838 935.26 176.628C934.514 175.418 934.14 173.669 934.14 171.383C934.14 169.109 934.514 167.367 935.26 166.157C936.007 164.947 937.087 164.342 938.5 164.342ZM935.56 171.383C935.56 173.005 935.707 174.274 936 175.192L940.44 166.357C939.973 165.732 939.327 165.419 938.5 165.419C937.58 165.419 936.86 165.911 936.34 166.895C935.82 167.866 935.56 169.362 935.56 171.383ZM938.5 177.346C939.433 177.346 940.16 176.86 940.68 175.89C941.2 174.906 941.46 173.404 941.46 171.383C941.46 169.667 941.293 168.338 940.96 167.394L936.52 176.309C937 177 937.66 177.346 938.5 177.346Z" fill="url(#paint86_linear_175_198)"/>
<path d="M939.7 199.979H942.64V201.036H935.02V199.979H938.42V188.771L935.18 190.705L934.62 189.808L938.62 187.335H939.7V199.979Z" fill="url(#paint87_linear_175_198)"/>
<path d="M938.5 209.928C939.927 209.928 941.006 210.533 941.74 211.743C942.486 212.94 942.86 214.681 942.86 216.968C942.86 219.255 942.486 221.003 941.74 222.213C941.006 223.423 939.927 224.028 938.5 224.028C937.087 224.028 936.007 223.423 935.26 222.213C934.514 221.003 934.14 219.255 934.14 216.968C934.14 214.695 934.514 212.953 935.26 211.743C936.007 210.533 937.087 209.928 938.5 209.928ZM935.56 216.968C935.56 218.59 935.707 219.86 936 220.777L940.44 211.942C939.973 211.317 939.327 211.005 938.5 211.005C937.58 211.005 936.86 211.497 936.34 212.481C935.82 213.451 935.56 214.947 935.56 216.968ZM938.5 222.931C939.433 222.931 940.16 222.446 940.68 221.475C941.2 220.492 941.46 218.989 941.46 216.968C941.46 215.253 941.293 213.923 940.96 212.979L936.52 221.894C937 222.586 937.66 222.931 938.5 222.931Z" fill="url(#paint88_linear_175_198)"/>
<path d="M975.64 4.7928C977.067 4.7928 978.147 5.39776 978.88 6.60768C979.627 7.8043 980 9.54605 980 11.8329C980 14.1198 979.627 15.8682 978.88 17.0781C978.147 18.288 977.067 18.893 975.64 18.893C974.227 18.893 973.147 18.288 972.401 17.0781C971.654 15.8682 971.281 14.1198 971.281 11.8329C971.281 9.55935 971.654 7.8176 972.401 6.60768C973.147 5.39776 974.227 4.7928 975.64 4.7928ZM972.701 11.8329C972.701 13.455 972.847 14.7248 973.14 15.6422L977.58 6.80712C977.114 6.18221 976.467 5.86976 975.64 5.86976C974.72 5.86976 974 6.36171 973.48 7.3456C972.96 8.31619 972.701 9.81197 972.701 11.8329ZM975.64 17.7961C976.574 17.7961 977.3 17.3108 977.82 16.3402C978.34 15.3563 978.6 13.8539 978.6 11.8329C978.6 10.1178 978.433 8.78819 978.1 7.84419L973.66 16.759C974.14 17.4504 974.8 17.7961 975.64 17.7961Z" fill="url(#paint89_linear_175_198)"/>
<path d="M976.84 40.4293H979.78V41.4864H972.161V40.4293H975.56V29.221L972.321 31.1555L971.761 30.2581L975.76 27.785H976.84V40.4293Z" fill="url(#paint90_linear_175_198)"/>
<path d="M976.84 63.2221H979.78V64.2792H972.161V63.2221H975.56V52.0138L972.321 53.9483L971.761 53.0509L975.76 50.5778H976.84V63.2221Z" fill="url(#paint91_linear_175_198)"/>
<path d="M975.64 73.1712C977.067 73.1712 978.147 73.7762 978.88 74.9861C979.627 76.1827 980 77.9245 980 80.2113C980 82.4982 979.627 84.2466 978.88 85.4565C978.147 86.6665 977.067 87.2714 975.64 87.2714C974.227 87.2714 973.147 86.6665 972.401 85.4565C971.654 84.2466 971.281 82.4982 971.281 80.2113C971.281 77.9378 971.654 76.196 972.401 74.9861C973.147 73.7762 974.227 73.1712 975.64 73.1712ZM972.701 80.2113C972.701 81.8334 972.847 83.1032 973.14 84.0206L977.58 75.1855C977.114 74.5606 976.467 74.2482 975.64 74.2482C974.72 74.2482 974 74.7401 973.48 75.724C972.96 76.6946 972.701 78.1904 972.701 80.2113ZM975.64 86.1745C976.574 86.1745 977.3 85.6892 977.82 84.7186C978.34 83.7347 978.6 82.2323 978.6 80.2113C978.6 78.4962 978.433 77.1666 978.1 76.2226L973.66 85.1374C974.14 85.8288 974.8 86.1745 975.64 86.1745Z" fill="url(#paint92_linear_175_198)"/>
<path d="M975.64 95.964C977.067 95.964 978.147 96.569 978.88 97.7789C979.627 98.9755 980 100.717 980 103.004C980 105.291 979.627 107.039 978.88 108.249C978.147 109.459 977.067 110.064 975.64 110.064C974.227 110.064 973.147 109.459 972.401 108.249C971.654 107.039 971.281 105.291 971.281 103.004C971.281 100.731 971.654 98.9888 972.401 97.7789C973.147 96.569 974.227 95.964 975.64 95.964ZM972.701 103.004C972.701 104.626 972.847 105.896 973.14 106.813L977.58 97.9783C977.114 97.3534 976.467 97.041 975.64 97.041C974.72 97.041 974 97.5329 973.48 98.5168C972.96 99.4874 972.701 100.983 972.701 103.004ZM975.64 108.967C976.574 108.967 977.3 108.482 977.82 107.511C978.34 106.528 978.6 105.025 978.6 103.004C978.6 101.289 978.433 99.9594 978.1 99.0154L973.66 107.93C974.14 108.622 974.8 108.967 975.64 108.967Z" fill="url(#paint93_linear_175_198)"/>
</g>
<defs>
<filter id="filter0_f_175_198" x="-558.19" y="-704.19" width="2141.38" height="1500.38" filterUnits="userSpaceOnUse" color-interpolation-filters="sRGB">
<feFlood flood-opacity="0" result="BackgroundImageFix"/>
<feBlend mode="normal" in="SourceGraphic" in2="BackgroundImageFix" result="shape"/>
<feGaussianBlur stdDeviation="200.095" result="effect1_foregroundBlur_175_198"/>
</filter>
<linearGradient id="paint0_linear_175_198" x1="52.5" y1="282" x2="52.5" y2="593.381" gradientUnits="userSpaceOnUse">
<stop stop-color="#F7DD43"/>
<stop offset="1" stop-color="#F7DD43" stop-opacity="0"/>
</linearGradient>
<linearGradient id="paint1_linear_175_198" x1="52.5" y1="282" x2="52.5" y2="593.381" gradientUnits="userSpaceOnUse">
<stop stop-color="#F7DD43"/>
<stop offset="1" stop-color="#F7DD43" stop-opacity="0"/>
</linearGradient>
<linearGradient id="paint2_linear_175_198" x1="52.5" y1="282" x2="52.5" y2="593.381" gradientUnits="userSpaceOnUse">
<stop stop-color="#F7DD43"/>
<stop offset="1" stop-color="#F7DD43" stop-opacity="0"/>
</linearGradient>
<linearGradient id="paint3_linear_175_198" x1="52.5" y1="282" x2="52.5" y2="593.381" gradientUnits="userSpaceOnUse">
<stop stop-color="#F7DD43"/>
<stop offset="1" stop-color="#F7DD43" stop-opacity="0"/>
</linearGradient>
<linearGradient id="paint4_linear_175_198" x1="52.5" y1="282" x2="52.5" y2="593.381" gradientUnits="userSpaceOnUse">
<stop stop-color="#F7DD43"/>
<stop offset="1" stop-color="#F7DD43" stop-opacity="0"/>
</linearGradient>
<linearGradient id="paint5_linear_175_198" x1="52.5" y1="282" x2="52.5" y2="593.381" gradientUnits="userSpaceOnUse">
<stop stop-color="#F7DD43"/>
<stop offset="1" stop-color="#F7DD43" stop-opacity="0"/>
</linearGradient>
<linearGradient id="paint6_linear_175_198" x1="52.5" y1="282" x2="52.5" y2="593.381" gradientUnits="userSpaceOnUse">
<stop stop-color="#F7DD43"/>
<stop offset="1" stop-color="#F7DD43" stop-opacity="0"/>
</linearGradient>
<linearGradient id="paint7_linear_175_198" x1="52.5" y1="282" x2="52.5" y2="593.381" gradientUnits="userSpaceOnUse">
<stop stop-color="#F7DD43"/>
<stop offset="1" stop-color="#F7DD43" stop-opacity="0"/>
</linearGradient>
<linearGradient id="paint8_linear_175_198" x1="52.5" y1="282" x2="52.5" y2="593.381" gradientUnits="userSpaceOnUse">
<stop stop-color="#F7DD43"/>
<stop offset="1" stop-color="#F7DD43" stop-opacity="0"/>
</linearGradient>
<linearGradient id="paint9_linear_175_198" x1="52.5" y1="282" x2="52.5" y2="593.381" gradientUnits="userSpaceOnUse">
<stop stop-color="#F7DD43"/>
<stop offset="1" stop-color="#F7DD43" stop-opacity="0"/>
</linearGradient>
<linearGradient id="paint10_linear_175_198" x1="52.5" y1="282" x2="52.5" y2="593.381" gradientUnits="userSpaceOnUse">
<stop stop-color="#F7DD43"/>
<stop offset="1" stop-color="#F7DD43" stop-opacity="0"/>
</linearGradient>
<linearGradient id="paint11_linear_175_198" x1="52.5" y1="282" x2="52.5" y2="593.381" gradientUnits="userSpaceOnUse">
<stop stop-color="#F7DD43"/>
<stop offset="1" stop-color="#F7DD43" stop-opacity="0"/>
</linearGradient>
<linearGradient id="paint12_linear_175_198" x1="52.5" y1="282" x2="52.5" y2="593.381" gradientUnits="userSpaceOnUse">
<stop stop-color="#F7DD43"/>
<stop offset="1" stop-color="#F7DD43" stop-opacity="0"/>
</linearGradient>
<linearGradient id="paint13_linear_175_198" x1="52.5" y1="282" x2="52.5" y2="593.381" gradientUnits="userSpaceOnUse">
<stop stop-color="#F7DD43"/>
<stop offset="1" stop-color="#F7DD43" stop-opacity="0"/>
</linearGradient>
<linearGradient id="paint14_linear_175_198" x1="52.5" y1="282" x2="52.5" y2="593.381" gradientUnits="userSpaceOnUse">
<stop stop-color="#F7DD43"/>
<stop offset="1" stop-color="#F7DD43" stop-opacity="0"/>
</linearGradient>
<linearGradient id="paint15_linear_175_198" x1="52.5" y1="282" x2="52.5" y2="593.381" gradientUnits="userSpaceOnUse">
<stop stop-color="#F7DD43"/>
<stop offset="1" stop-color="#F7DD43" stop-opacity="0"/>
</linearGradient>
<linearGradient id="paint16_linear_175_198" x1="52.5" y1="282" x2="52.5" y2="593.381" gradientUnits="userSpaceOnUse">
<stop stop-color="#F7DD43"/>
<stop offset="1" stop-color="#F7DD43" stop-opacity="0"/>
</linearGradient>
<linearGradient id="paint17_linear_175_198" x1="52.5" y1="282" x2="52.5" y2="593.381" gradientUnits="userSpaceOnUse">
<stop stop-color="#F7DD43"/>
<stop offset="1" stop-color="#F7DD43" stop-opacity="0"/>
</linearGradient>
<linearGradient id="paint18_linear_175_198" x1="52.5" y1="282" x2="52.5" y2="593.381" gradientUnits="userSpaceOnUse">
<stop stop-color="#F7DD43"/>
<stop offset="1" stop-color="#F7DD43" stop-opacity="0"/>
</linearGradient>
<linearGradient id="paint19_linear_175_198" x1="52.5" y1="282" x2="52.5" y2="593.381" gradientUnits="userSpaceOnUse">
<stop stop-color="#F7DD43"/>
<stop offset="1" stop-color="#F7DD43" stop-opacity="0"/>
</linearGradient>
<linearGradient id="paint20_linear_175_198" x1="52.5" y1="282" x2="52.5" y2="593.381" gradientUnits="userSpaceOnUse">
<stop stop-color="#F7DD43"/>
<stop offset="1" stop-color="#F7DD43" stop-opacity="0"/>
</linearGradient>
<linearGradient id="paint21_linear_175_198" x1="52.5" y1="282" x2="52.5" y2="593.381" gradientUnits="userSpaceOnUse">
<stop stop-color="#F7DD43"/>
<stop offset="1" stop-color="#F7DD43" stop-opacity="0"/>
</linearGradient>
<linearGradient id="paint22_linear_175_198" x1="52.5" y1="282" x2="52.5" y2="593.381" gradientUnits="userSpaceOnUse">
<stop stop-color="#F7DD43"/>
<stop offset="1" stop-color="#F7DD43" stop-opacity="0"/>
</linearGradient>
<linearGradient id="paint23_linear_175_198" x1="52.5" y1="282" x2="52.5" y2="593.381" gradientUnits="userSpaceOnUse">
<stop stop-color="#F7DD43"/>
<stop offset="1" stop-color="#F7DD43" stop-opacity="0"/>
</linearGradient>
<linearGradient id="paint24_linear_175_198" x1="52.5" y1="282" x2="52.5" y2="593.381" gradientUnits="userSpaceOnUse">
<stop stop-color="#F7DD43"/>
<stop offset="1" stop-color="#F7DD43" stop-opacity="0"/>
</linearGradient>
<linearGradient id="paint25_linear_175_198" x1="52.5" y1="282" x2="52.5" y2="593.381" gradientUnits="userSpaceOnUse">
<stop stop-color="#F7DD43"/>
<stop offset="1" stop-color="#F7DD43" stop-opacity="0"/>
</linearGradient>
<linearGradient id="paint26_linear_175_198" x1="52.5" y1="282" x2="52.5" y2="593.381" gradientUnits="userSpaceOnUse">
<stop stop-color="#F7DD43"/>
<stop offset="1" stop-color="#F7DD43" stop-opacity="0"/>
</linearGradient>
<linearGradient id="paint27_linear_175_198" x1="52.5" y1="282" x2="52.5" y2="593.381" gradientUnits="userSpaceOnUse">
<stop stop-color="#F7DD43"/>
<stop offset="1" stop-color="#F7DD43" stop-opacity="0"/>
</linearGradient>
<linearGradient id="paint28_linear_175_198" x1="52.5" y1="282" x2="52.5" y2="593.381" gradientUnits="userSpaceOnUse">
<stop stop-color="#F7DD43"/>
<stop offset="1" stop-color="#F7DD43" stop-opacity="0"/>
</linearGradient>
<linearGradient id="paint29_linear_175_198" x1="52.5" y1="282" x2="52.5" y2="593.381" gradientUnits="userSpaceOnUse">
<stop stop-color="#F7DD43"/>
<stop offset="1" stop-color="#F7DD43" stop-opacity="0"/>
</linearGradient>
<linearGradient id="paint30_linear_175_198" x1="52.5" y1="282" x2="52.5" y2="593.381" gradientUnits="userSpaceOnUse">
<stop stop-color="#F7DD43"/>
<stop offset="1" stop-color="#F7DD43" stop-opacity="0"/>
</linearGradient>
<linearGradient id="paint31_linear_175_198" x1="52.5" y1="282" x2="52.5" y2="593.381" gradientUnits="userSpaceOnUse">
<stop stop-color="#F7DD43"/>
<stop offset="1" stop-color="#F7DD43" stop-opacity="0"/>
</linearGradient>
<linearGradient id="paint32_linear_175_198" x1="52.5" y1="282" x2="52.5" y2="593.381" gradientUnits="userSpaceOnUse">
<stop stop-color="#F7DD43"/>
<stop offset="1" stop-color="#F7DD43" stop-opacity="0"/>
</linearGradient>
<linearGradient id="paint33_linear_175_198" x1="52.5" y1="282" x2="52.5" y2="593.381" gradientUnits="userSpaceOnUse">
<stop stop-color="#F7DD43"/>
<stop offset="1" stop-color="#F7DD43" stop-opacity="0"/>
</linearGradient>
<linearGradient id="paint34_linear_175_198" x1="52.5" y1="282" x2="52.5" y2="593.381" gradientUnits="userSpaceOnUse">
<stop stop-color="#F7DD43"/>
<stop offset="1" stop-color="#F7DD43" stop-opacity="0"/>
</linearGradient>
<linearGradient id="paint35_linear_175_198" x1="52.5" y1="282" x2="52.5" y2="593.381" gradientUnits="userSpaceOnUse">
<stop stop-color="#F7DD43"/>
<stop offset="1" stop-color="#F7DD43" stop-opacity="0"/>
</linearGradient>
<linearGradient id="paint36_linear_175_198" x1="52.5" y1="282" x2="52.5" y2="593.381" gradientUnits="userSpaceOnUse">
<stop stop-color="#F7DD43"/>
<stop offset="1" stop-color="#F7DD43" stop-opacity="0"/>
</linearGradient>
<linearGradient id="paint37_linear_175_198" x1="52.5" y1="282" x2="52.5" y2="593.381" gradientUnits="userSpaceOnUse">
<stop stop-color="#F7DD43"/>
<stop offset="1" stop-color="#F7DD43" stop-opacity="0"/>
</linearGradient>
<linearGradient id="paint38_linear_175_198" x1="52.5" y1="282" x2="52.5" y2="593.381" gradientUnits="userSpaceOnUse">
<stop stop-color="#F7DD43"/>
<stop offset="1" stop-color="#F7DD43" stop-opacity="0"/>
</linearGradient>
<linearGradient id="paint39_linear_175_198" x1="52.5" y1="282" x2="52.5" y2="593.381" gradientUnits="userSpaceOnUse">
<stop stop-color="#F7DD43"/>
<stop offset="1" stop-color="#F7DD43" stop-opacity="0"/>
</linearGradient>
<linearGradient id="paint40_linear_175_198" x1="52.5" y1="282" x2="52.5" y2="593.381" gradientUnits="userSpaceOnUse">
<stop stop-color="#F7DD43"/>
<stop offset="1" stop-color="#F7DD43" stop-opacity="0"/>
</linearGradient>
<linearGradient id="paint41_linear_175_198" x1="52.5" y1="282" x2="52.5" y2="593.381" gradientUnits="userSpaceOnUse">
<stop stop-color="#F7DD43"/>
<stop offset="1" stop-color="#F7DD43" stop-opacity="0"/>
</linearGradient>
<linearGradient id="paint42_linear_175_198" x1="52.5" y1="282" x2="52.5" y2="593.381" gradientUnits="userSpaceOnUse">
<stop stop-color="#F7DD43"/>
<stop offset="1" stop-color="#F7DD43" stop-opacity="0"/>
</linearGradient>
<linearGradient id="paint43_linear_175_198" x1="52.5" y1="282" x2="52.5" y2="593.381" gradientUnits="userSpaceOnUse">
<stop stop-color="#F7DD43"/>
<stop offset="1" stop-color="#F7DD43" stop-opacity="0"/>
</linearGradient>
<linearGradient id="paint44_linear_175_198" x1="52.5" y1="282" x2="52.5" y2="593.381" gradientUnits="userSpaceOnUse">
<stop stop-color="#F7DD43"/>
<stop offset="1" stop-color="#F7DD43" stop-opacity="0"/>
</linearGradient>
<linearGradient id="paint45_linear_175_198" x1="52.5" y1="282" x2="52.5" y2="593.381" gradientUnits="userSpaceOnUse">
<stop stop-color="#F7DD43"/>
<stop offset="1" stop-color="#F7DD43" stop-opacity="0"/>
</linearGradient>
<linearGradient id="paint46_linear_175_198" x1="52.5" y1="282" x2="52.5" y2="593.381" gradientUnits="userSpaceOnUse">
<stop stop-color="#F7DD43"/>
<stop offset="1" stop-color="#F7DD43" stop-opacity="0"/>
</linearGradient>
<linearGradient id="paint47_linear_175_198" x1="938.5" y1="-18" x2="938.5" y2="280.818" gradientUnits="userSpaceOnUse">
<stop stop-color="#F7DD43"/>
<stop offset="1" stop-color="#F7DD43" stop-opacity="0"/>
</linearGradient>
<linearGradient id="paint48_linear_175_198" x1="938.5" y1="-18" x2="938.5" y2="280.818" gradientUnits="userSpaceOnUse">
<stop stop-color="#F7DD43"/>
<stop offset="1" stop-color="#F7DD43" stop-opacity="0"/>
</linearGradient>
<linearGradient id="paint49_linear_175_198" x1="938.5" y1="-18" x2="938.5" y2="280.818" gradientUnits="userSpaceOnUse">
<stop stop-color="#F7DD43"/>
<stop offset="1" stop-color="#F7DD43" stop-opacity="0"/>
</linearGradient>
<linearGradient id="paint50_linear_175_198" x1="938.5" y1="-18" x2="938.5" y2="280.818" gradientUnits="userSpaceOnUse">
<stop stop-color="#F7DD43"/>
<stop offset="1" stop-color="#F7DD43" stop-opacity="0"/>
</linearGradient>
<linearGradient id="paint51_linear_175_198" x1="938.5" y1="-18" x2="938.5" y2="280.818" gradientUnits="userSpaceOnUse">
<stop stop-color="#F7DD43"/>
<stop offset="1" stop-color="#F7DD43" stop-opacity="0"/>
</linearGradient>
<linearGradient id="paint52_linear_175_198" x1="938.5" y1="-18" x2="938.5" y2="280.818" gradientUnits="userSpaceOnUse">
<stop stop-color="#F7DD43"/>
<stop offset="1" stop-color="#F7DD43" stop-opacity="0"/>
</linearGradient>
<linearGradient id="paint53_linear_175_198" x1="938.5" y1="-18" x2="938.5" y2="280.818" gradientUnits="userSpaceOnUse">
<stop stop-color="#F7DD43"/>
<stop offset="1" stop-color="#F7DD43" stop-opacity="0"/>
</linearGradient>
<linearGradient id="paint54_linear_175_198" x1="938.5" y1="-18" x2="938.5" y2="280.818" gradientUnits="userSpaceOnUse">
<stop stop-color="#F7DD43"/>
<stop offset="1" stop-color="#F7DD43" stop-opacity="0"/>
</linearGradient>
<linearGradient id="paint55_linear_175_198" x1="938.5" y1="-18" x2="938.5" y2="280.818" gradientUnits="userSpaceOnUse">
<stop stop-color="#F7DD43"/>
<stop offset="1" stop-color="#F7DD43" stop-opacity="0"/>
</linearGradient>
<linearGradient id="paint56_linear_175_198" x1="938.5" y1="-18" x2="938.5" y2="280.818" gradientUnits="userSpaceOnUse">
<stop stop-color="#F7DD43"/>
<stop offset="1" stop-color="#F7DD43" stop-opacity="0"/>
</linearGradient>
<linearGradient id="paint57_linear_175_198" x1="938.5" y1="-18" x2="938.5" y2="280.818" gradientUnits="userSpaceOnUse">
<stop stop-color="#F7DD43"/>
<stop offset="1" stop-color="#F7DD43" stop-opacity="0"/>
</linearGradient>
<linearGradient id="paint58_linear_175_198" x1="938.5" y1="-18" x2="938.5" y2="280.818" gradientUnits="userSpaceOnUse">
<stop stop-color="#F7DD43"/>
<stop offset="1" stop-color="#F7DD43" stop-opacity="0"/>
</linearGradient>
<linearGradient id="paint59_linear_175_198" x1="938.5" y1="-18" x2="938.5" y2="280.818" gradientUnits="userSpaceOnUse">
<stop stop-color="#F7DD43"/>
<stop offset="1" stop-color="#F7DD43" stop-opacity="0"/>
</linearGradient>
<linearGradient id="paint60_linear_175_198" x1="938.5" y1="-18" x2="938.5" y2="280.818" gradientUnits="userSpaceOnUse">
<stop stop-color="#F7DD43"/>
<stop offset="1" stop-color="#F7DD43" stop-opacity="0"/>
</linearGradient>
<linearGradient id="paint61_linear_175_198" x1="938.5" y1="-18" x2="938.5" y2="280.818" gradientUnits="userSpaceOnUse">
<stop stop-color="#F7DD43"/>
<stop offset="1" stop-color="#F7DD43" stop-opacity="0"/>
</linearGradient>
<linearGradient id="paint62_linear_175_198" x1="938.5" y1="-18" x2="938.5" y2="280.818" gradientUnits="userSpaceOnUse">
<stop stop-color="#F7DD43"/>
<stop offset="1" stop-color="#F7DD43" stop-opacity="0"/>
</linearGradient>
<linearGradient id="paint63_linear_175_198" x1="938.5" y1="-18" x2="938.5" y2="280.818" gradientUnits="userSpaceOnUse">
<stop stop-color="#F7DD43"/>
<stop offset="1" stop-color="#F7DD43" stop-opacity="0"/>
</linearGradient>
<linearGradient id="paint64_linear_175_198" x1="938.5" y1="-18" x2="938.5" y2="280.818" gradientUnits="userSpaceOnUse">
<stop stop-color="#F7DD43"/>
<stop offset="1" stop-color="#F7DD43" stop-opacity="0"/>
</linearGradient>
<linearGradient id="paint65_linear_175_198" x1="938.5" y1="-18" x2="938.5" y2="280.818" gradientUnits="userSpaceOnUse">
<stop stop-color="#F7DD43"/>
<stop offset="1" stop-color="#F7DD43" stop-opacity="0"/>
</linearGradient>
<linearGradient id="paint66_linear_175_198" x1="938.5" y1="-18" x2="938.5" y2="280.818" gradientUnits="userSpaceOnUse">
<stop stop-color="#F7DD43"/>
<stop offset="1" stop-color="#F7DD43" stop-opacity="0"/>
</linearGradient>
<linearGradient id="paint67_linear_175_198" x1="938.5" y1="-18" x2="938.5" y2="280.818" gradientUnits="userSpaceOnUse">
<stop stop-color="#F7DD43"/>
<stop offset="1" stop-color="#F7DD43" stop-opacity="0"/>
</linearGradient>
<linearGradient id="paint68_linear_175_198" x1="938.5" y1="-18" x2="938.5" y2="280.818" gradientUnits="userSpaceOnUse">
<stop stop-color="#F7DD43"/>
<stop offset="1" stop-color="#F7DD43" stop-opacity="0"/>
</linearGradient>
<linearGradient id="paint69_linear_175_198" x1="938.5" y1="-18" x2="938.5" y2="280.818" gradientUnits="userSpaceOnUse">
<stop stop-color="#F7DD43"/>
<stop offset="1" stop-color="#F7DD43" stop-opacity="0"/>
</linearGradient>
<linearGradient id="paint70_linear_175_198" x1="938.5" y1="-18" x2="938.5" y2="280.818" gradientUnits="userSpaceOnUse">
<stop stop-color="#F7DD43"/>
<stop offset="1" stop-color="#F7DD43" stop-opacity="0"/>
</linearGradient>
<linearGradient id="paint71_linear_175_198" x1="938.5" y1="-18" x2="938.5" y2="280.818" gradientUnits="userSpaceOnUse">
<stop stop-color="#F7DD43"/>
<stop offset="1" stop-color="#F7DD43" stop-opacity="0"/>
</linearGradient>
<linearGradient id="paint72_linear_175_198" x1="938.5" y1="-18" x2="938.5" y2="280.818" gradientUnits="userSpaceOnUse">
<stop stop-color="#F7DD43"/>
<stop offset="1" stop-color="#F7DD43" stop-opacity="0"/>
</linearGradient>
<linearGradient id="paint73_linear_175_198" x1="938.5" y1="-18" x2="938.5" y2="280.818" gradientUnits="userSpaceOnUse">
<stop stop-color="#F7DD43"/>
<stop offset="1" stop-color="#F7DD43" stop-opacity="0"/>
</linearGradient>
<linearGradient id="paint74_linear_175_198" x1="938.5" y1="-18" x2="938.5" y2="280.818" gradientUnits="userSpaceOnUse">
<stop stop-color="#F7DD43"/>
<stop offset="1" stop-color="#F7DD43" stop-opacity="0"/>
</linearGradient>
<linearGradient id="paint75_linear_175_198" x1="938.5" y1="-18" x2="938.5" y2="280.818" gradientUnits="userSpaceOnUse">
<stop stop-color="#F7DD43"/>
<stop offset="1" stop-color="#F7DD43" stop-opacity="0"/>
</linearGradient>
<linearGradient id="paint76_linear_175_198" x1="938.5" y1="-18" x2="938.5" y2="280.818" gradientUnits="userSpaceOnUse">
<stop stop-color="#F7DD43"/>
<stop offset="1" stop-color="#F7DD43" stop-opacity="0"/>
</linearGradient>
<linearGradient id="paint77_linear_175_198" x1="938.5" y1="-18" x2="938.5" y2="280.818" gradientUnits="userSpaceOnUse">
<stop stop-color="#F7DD43"/>
<stop offset="1" stop-color="#F7DD43" stop-opacity="0"/>
</linearGradient>
<linearGradient id="paint78_linear_175_198" x1="938.5" y1="-18" x2="938.5" y2="280.818" gradientUnits="userSpaceOnUse">
<stop stop-color="#F7DD43"/>
<stop offset="1" stop-color="#F7DD43" stop-opacity="0"/>
</linearGradient>
<linearGradient id="paint79_linear_175_198" x1="938.5" y1="-18" x2="938.5" y2="280.818" gradientUnits="userSpaceOnUse">
<stop stop-color="#F7DD43"/>
<stop offset="1" stop-color="#F7DD43" stop-opacity="0"/>
</linearGradient>
<linearGradient id="paint80_linear_175_198" x1="938.5" y1="-18" x2="938.5" y2="280.818" gradientUnits="userSpaceOnUse">
<stop stop-color="#F7DD43"/>
<stop offset="1" stop-color="#F7DD43" stop-opacity="0"/>
</linearGradient>
<linearGradient id="paint81_linear_175_198" x1="938.5" y1="-18" x2="938.5" y2="280.818" gradientUnits="userSpaceOnUse">
<stop stop-color="#F7DD43"/>
<stop offset="1" stop-color="#F7DD43" stop-opacity="0"/>
</linearGradient>
<linearGradient id="paint82_linear_175_198" x1="938.5" y1="-18" x2="938.5" y2="280.818" gradientUnits="userSpaceOnUse">
<stop stop-color="#F7DD43"/>
<stop offset="1" stop-color="#F7DD43" stop-opacity="0"/>
</linearGradient>
<linearGradient id="paint83_linear_175_198" x1="938.5" y1="-18" x2="938.5" y2="280.818" gradientUnits="userSpaceOnUse">
<stop stop-color="#F7DD43"/>
<stop offset="1" stop-color="#F7DD43" stop-opacity="0"/>
</linearGradient>
<linearGradient id="paint84_linear_175_198" x1="938.5" y1="-18" x2="938.5" y2="280.818" gradientUnits="userSpaceOnUse">
<stop stop-color="#F7DD43"/>
<stop offset="1" stop-color="#F7DD43" stop-opacity="0"/>
</linearGradient>
<linearGradient id="paint85_linear_175_198" x1="938.5" y1="-18" x2="938.5" y2="280.818" gradientUnits="userSpaceOnUse">
<stop stop-color="#F7DD43"/>
<stop offset="1" stop-color="#F7DD43" stop-opacity="0"/>
</linearGradient>
<linearGradient id="paint86_linear_175_198" x1="938.5" y1="-18" x2="938.5" y2="280.818" gradientUnits="userSpaceOnUse">
<stop stop-color="#F7DD43"/>
<stop offset="1" stop-color="#F7DD43" stop-opacity="0"/>
</linearGradient>
<linearGradient id="paint87_linear_175_198" x1="938.5" y1="-18" x2="938.5" y2="280.818" gradientUnits="userSpaceOnUse">
<stop stop-color="#F7DD43"/>
<stop offset="1" stop-color="#F7DD43" stop-opacity="0"/>
</linearGradient>
<linearGradient id="paint88_linear_175_198" x1="938.5" y1="-18" x2="938.5" y2="280.818" gradientUnits="userSpaceOnUse">
<stop stop-color="#F7DD43"/>
<stop offset="1" stop-color="#F7DD43" stop-opacity="0"/>
</linearGradient>
<linearGradient id="paint89_linear_175_198" x1="938.5" y1="-18" x2="938.5" y2="280.818" gradientUnits="userSpaceOnUse">
<stop stop-color="#F7DD43"/>
<stop offset="1" stop-color="#F7DD43" stop-opacity="0"/>
</linearGradient>
<linearGradient id="paint90_linear_175_198" x1="938.5" y1="-18" x2="938.5" y2="280.818" gradientUnits="userSpaceOnUse">
<stop stop-color="#F7DD43"/>
<stop offset="1" stop-color="#F7DD43" stop-opacity="0"/>
</linearGradient>
<linearGradient id="paint91_linear_175_198" x1="938.5" y1="-18" x2="938.5" y2="280.818" gradientUnits="userSpaceOnUse">
<stop stop-color="#F7DD43"/>
<stop offset="1" stop-color="#F7DD43" stop-opacity="0"/>
</linearGradient>
<linearGradient id="paint92_linear_175_198" x1="938.5" y1="-18" x2="938.5" y2="280.818" gradientUnits="userSpaceOnUse">
<stop stop-color="#F7DD43"/>
<stop offset="1" stop-color="#F7DD43" stop-opacity="0"/>
</linearGradient>
<linearGradient id="paint93_linear_175_198" x1="938.5" y1="-18" x2="938.5" y2="280.818" gradientUnits="userSpaceOnUse">
<stop stop-color="#F7DD43"/>
<stop offset="1" stop-color="#F7DD43" stop-opacity="0"/>
</linearGradient>
</defs>
</svg>
